<?xml version="1.0" encoding="utf-8"?>
<!-- Generator: Adobe Illustrator 16.0.0, SVG Export Plug-In . SVG Version: 6.00 Build 0)  -->
<!DOCTYPE svg PUBLIC "-//W3C//DTD SVG 1.1//EN" "http://www.w3.org/Graphics/SVG/1.1/DTD/svg11.dtd">
<svg version="1.1" id="Layer_2" xmlns="http://www.w3.org/2000/svg" xmlns:xlink="http://www.w3.org/1999/xlink" x="0px" y="0px"
	 width="478px" height="280.667px" viewBox="0 0 478 280.667" enable-background="new 0 0 478 280.667" xml:space="preserve">
<g id="XMLID_1_">
	<g>
		<path fill="#272A31" d="M215.167,165.167c0,1.58-0.04,3.14-0.13,4.7l-10.87-10.53l-1.28-37.78
			C210.677,134.247,215.167,149.186,215.167,165.167z"/>
		<path fill="#272A31" d="M185.837,216.667h11.56c-9.45,12.05-22.15,21.44-36.78,26.84L185.837,216.667z"/>
		<polygon fill="#272A31" points="194.167,168.336 183.837,201.336 153.498,205.667 146.167,173.336 171.498,149.336 		"/>
		<polygon fill="#272A31" points="156.167,85.327 177.498,109.336 163.167,119.336 128.167,109.336 125.837,90.336 		"/>
		<path fill="#272A31" d="M130.167,225.336l5.67,13.66l-17.6,8.59c-10.14-1.63-19.67-5.1-28.24-10.04l-4.12-11.189l-0.38-1.021
			l10.67-8.67L130.167,225.336z"/>
		<polygon fill="#272A31" points="104.167,129.667 114.498,161.667 85.498,185.336 65.498,165.167 75.837,131.997 		"/>
		<path fill="#272A31" d="M91.228,92.106l-1.23,8.23l-16.83,17.33l-6.45-4.97C73.458,104.346,81.777,97.336,91.228,92.106z"/>
		<path d="M56.228,175.997v25c-3.86-8.11-6.45-16.94-7.51-26.24L56.228,175.997z"/>
	</g>
	<g>
		<path fill="none" stroke="#272A31" stroke-width="4" stroke-miterlimit="10" d="M160.607,243.516c-4.63,1.71-9.46,3.021-14.44,3.9
			c-4.71,0.82-9.55,1.25-14.5,1.25c-4.57,0-9.06-0.37-13.43-1.08c-10.14-1.63-19.67-5.1-28.24-10.04
			c-8.38-4.83-15.84-11.08-22.04-18.42c-4.66-5.479-8.61-11.57-11.73-18.13c-3.86-8.11-6.45-16.94-7.51-26.24
			c-0.37-3.149-0.55-6.35-0.55-9.59c0-19.88,6.94-38.14,18.55-52.47c6.74-8.351,15.06-15.36,24.51-20.59
			c11.98-6.66,25.77-10.44,40.44-10.44c8.53,0,16.76,1.28,24.5,3.65c14.65,4.49,27.59,12.9,37.58,24.02
			c3.41,3.771,6.47,7.86,9.14,12.22c7.79,12.69,12.28,27.63,12.28,43.61c0,1.58-0.04,3.14-0.13,4.7
			c-0.98,17.609-7.41,33.77-17.64,46.8c-9.45,12.05-22.15,21.44-36.78,26.84"/>
		<polygon fill="none" stroke="#272A31" stroke-miterlimit="10" points="75.837,131.997 104.167,129.667 114.498,161.667 
			85.498,185.336 65.498,165.167 		"/>
		<polygon fill="none" stroke="#272A31" stroke-miterlimit="10" points="171.498,149.336 146.167,173.336 153.498,205.667 
			183.837,201.336 194.167,168.336 		"/>
		<polyline fill="none" stroke="#272A31" stroke-miterlimit="10" points="89.998,237.546 85.877,226.357 85.498,225.336 
			96.167,216.667 130.167,225.336 135.837,238.997 118.237,247.586 		"/>
		<polygon fill="none" stroke="#272A31" stroke-miterlimit="10" points="128.167,109.336 163.167,119.336 177.498,109.336 
			156.167,85.327 125.837,90.336 		"/>
		<polyline fill="none" stroke="#272A31" stroke-miterlimit="10" points="215.167,169.997 215.038,169.867 204.167,159.336 
			202.888,121.556 		"/>
		
			<line fill="none" stroke="#272A31" stroke-width="4" stroke-miterlimit="10" x1="160.618" y1="243.506" x2="160.607" y2="243.516"/>
		<polyline fill="none" stroke="#272A31" stroke-miterlimit="10" points="197.397,216.667 185.837,216.667 160.618,243.506 		"/>
		<polyline fill="none" stroke="#272A31" stroke-miterlimit="10" points="56.228,200.997 56.228,175.997 48.717,174.756 
			48.167,174.667 		"/>
		<polyline fill="none" stroke="#272A31" stroke-miterlimit="10" points="66.717,112.697 73.167,117.667 89.998,100.336 
			91.228,92.106 		"/>
		<line fill="none" stroke="#272A31" stroke-miterlimit="10" x1="125.837" y1="90.336" x2="89.998" y2="100.336"/>
		<line fill="none" stroke="#272A31" stroke-miterlimit="10" x1="128.167" y1="109.336" x2="104.167" y2="129.667"/>
		<line fill="none" stroke="#272A31" stroke-miterlimit="10" x1="75.837" y1="131.997" x2="73.167" y2="117.667"/>
		<line fill="none" stroke="#272A31" stroke-miterlimit="10" x1="65.498" y1="165.167" x2="56.228" y2="175.997"/>
		<line fill="none" stroke="#272A31" stroke-miterlimit="10" x1="96.167" y1="216.667" x2="85.498" y2="185.336"/>
		<line fill="none" stroke="#272A31" stroke-miterlimit="10" x1="85.877" y1="226.357" x2="67.958" y2="219.126"/>
		<line fill="none" stroke="#272A31" stroke-miterlimit="10" x1="135.837" y1="238.997" x2="146.167" y2="247.407"/>
		<line fill="none" stroke="#272A31" stroke-miterlimit="10" x1="185.837" y1="216.667" x2="183.837" y2="201.336"/>
		<line fill="none" stroke="#272A31" stroke-miterlimit="10" x1="204.167" y1="159.336" x2="194.167" y2="168.336"/>
		<line fill="none" stroke="#272A31" stroke-miterlimit="10" x1="163.167" y1="119.336" x2="171.498" y2="149.336"/>
		<line fill="none" stroke="#272A31" stroke-miterlimit="10" x1="146.167" y1="173.336" x2="114.498" y2="161.667"/>
		<line fill="none" stroke="#272A31" stroke-miterlimit="10" x1="177.498" y1="109.336" x2="193.748" y2="109.336"/>
		<line fill="none" stroke="#272A31" stroke-miterlimit="10" x1="153.498" y1="205.667" x2="130.167" y2="225.336"/>
	</g>
</g>
<path fill="none" stroke="#272A31" stroke-width="10" stroke-miterlimit="10" d="M165.834,83.667
	c10.284-9.398,23.541-16.499,35.332-23.755c14.898-9.168,40.236-25.82,57.26-11.564c20.215,16.927,4.365,48.804-4.521,67.125
	c-12.901,26.599-32.04,50.151-52.58,71.228c-10.875,11.157-23.361,21.006-36.565,29.282c-27.132,17.008-56.663,31.23-88.079,38.145
	c-13.907,3.062-36.938,6.008-43.541-10.571c-5.653-14.195,5.208-32.741,15.025-42.558"/>
<circle fill="#EB5342" stroke="#EB5342" stroke-width="4" stroke-miterlimit="10" cx="204.337" cy="56.165" r="24.832"/>
<g>
	<path fill="#272A31" d="M310.03,119.567c-2.256,0.769-6.528,1.824-10.801,1.824c-5.904,0-10.177-1.488-13.153-4.368
		c-2.976-2.784-4.608-7.009-4.561-11.761c0.049-10.753,7.873-16.897,18.482-16.897c4.176,0,7.393,0.815,8.977,1.584l-1.536,5.856
		c-1.776-0.769-3.984-1.393-7.537-1.393c-6.097,0-10.705,3.457-10.705,10.465c0,6.673,4.177,10.609,10.178,10.609
		c1.68,0,3.023-0.192,3.6-0.48v-6.769h-4.992v-5.712h12.049V119.567z"/>
	<path fill="#272A31" d="M315.644,86.972h7.296v34.083h-7.296V86.972z"/>
	<path fill="#272A31" d="M352.029,109.054c0,8.593-6.097,12.529-12.385,12.529c-6.865,0-12.146-4.513-12.146-12.098
		c0-7.584,4.992-12.433,12.529-12.433C347.229,97.053,352.029,101.998,352.029,109.054z M335.036,109.294
		c0,4.032,1.68,7.057,4.8,7.057c2.833,0,4.656-2.833,4.656-7.057c0-3.505-1.344-7.057-4.656-7.057
		C336.332,102.238,335.036,105.837,335.036,109.294z"/>
	<path fill="#272A31" d="M356.347,121.055c0.096-1.536,0.192-4.368,0.192-7.009V86.972h7.296v13.394h0.097
		c1.392-2.017,3.84-3.313,7.104-3.313c5.616,0,9.744,4.656,9.696,11.856c0,8.449-5.376,12.674-10.753,12.674
		c-2.736,0-5.376-1.009-7.057-3.793h-0.096l-0.288,3.265H356.347z M363.835,111.07c0,0.48,0.048,0.912,0.145,1.297
		c0.479,1.968,2.16,3.456,4.272,3.456c3.12,0,5.04-2.4,5.04-6.625c0-3.647-1.632-6.528-5.04-6.528c-1.969,0-3.793,1.488-4.272,3.601
		c-0.097,0.432-0.145,0.864-0.145,1.344V111.07z"/>
	<path fill="#272A31" d="M398.588,121.055l-0.432-2.353h-0.145c-1.536,1.872-3.937,2.881-6.721,2.881
		c-4.752,0-7.584-3.457-7.584-7.201c0-6.097,5.472-9.024,13.776-8.977v-0.336c0-1.248-0.672-3.024-4.272-3.024
		c-2.399,0-4.944,0.816-6.48,1.776l-1.344-4.704c1.632-0.912,4.849-2.064,9.121-2.064c7.824,0,10.32,4.608,10.32,10.129v8.16
		c0,2.257,0.097,4.417,0.336,5.713H398.588z M397.724,109.966c-3.84-0.048-6.816,0.864-6.816,3.696c0,1.872,1.248,2.784,2.88,2.784
		c1.824,0,3.313-1.2,3.793-2.688c0.096-0.384,0.144-0.815,0.144-1.248V109.966z"/>
	<path fill="#272A31" d="M410.587,86.972h7.296v34.083h-7.296V86.972z"/>
	<path fill="#EB5342" d="M283.244,171.118c1.969,1.009,4.992,2.017,8.113,2.017c3.359,0,5.136-1.393,5.136-3.504
		c0-2.017-1.536-3.169-5.424-4.561c-5.377-1.872-8.881-4.849-8.881-9.553c0-5.521,4.608-9.745,12.241-9.745
		c3.647,0,6.336,0.768,8.256,1.632l-1.632,5.904c-1.296-0.624-3.601-1.535-6.769-1.535s-4.704,1.439-4.704,3.12
		c0,2.063,1.824,2.976,6,4.56c5.713,2.112,8.401,5.089,8.401,9.649c0,5.425-4.177,10.033-13.058,10.033
		c-3.696,0-7.345-0.961-9.169-1.969L283.244,171.118z"/>
	<path fill="#EB5342" d="M332.205,166.654c0,8.593-6.097,12.529-12.385,12.529c-6.865,0-12.146-4.513-12.146-12.098
		c0-7.584,4.992-12.433,12.529-12.433C327.404,154.653,332.205,159.597,332.205,166.654z M315.212,166.894
		c0,4.032,1.68,7.057,4.8,7.057c2.833,0,4.656-2.833,4.656-7.057c0-3.505-1.344-7.057-4.656-7.057
		C316.508,159.837,315.212,163.437,315.212,166.894z"/>
	<path fill="#EB5342" d="M354.477,178.079c-1.296,0.576-3.744,1.057-6.528,1.057c-7.585,0-12.434-4.608-12.434-12.001
		c0-6.865,4.704-12.481,13.441-12.481c1.92,0,4.032,0.336,5.568,0.912l-1.152,5.425c-0.864-0.385-2.16-0.721-4.08-0.721
		c-3.841,0-6.337,2.736-6.288,6.577c0,4.32,2.88,6.576,6.432,6.576c1.729,0,3.072-0.288,4.177-0.72L354.477,178.079z"/>
	<path fill="#EB5342" d="M375.597,178.079c-1.296,0.576-3.744,1.057-6.528,1.057c-7.585,0-12.434-4.608-12.434-12.001
		c0-6.865,4.704-12.481,13.441-12.481c1.92,0,4.032,0.336,5.568,0.912l-1.152,5.425c-0.864-0.385-2.16-0.721-4.08-0.721
		c-3.84,0-6.337,2.736-6.288,6.577c0,4.32,2.88,6.576,6.432,6.576c1.729,0,3.072-0.288,4.177-0.72L375.597,178.079z"/>
	<path fill="#EB5342" d="M384.716,169.246c0.24,3.024,3.216,4.465,6.624,4.465c2.496,0,4.513-0.336,6.48-0.96l0.961,4.944
		c-2.4,0.96-5.329,1.44-8.497,1.44c-7.969,0-12.529-4.608-12.529-11.953c0-5.953,3.696-12.529,11.857-12.529
		c7.584,0,10.465,5.904,10.465,11.713c0,1.248-0.145,2.353-0.24,2.88H384.716z M393.309,164.253c0-1.776-0.769-4.752-4.129-4.752
		c-3.072,0-4.32,2.784-4.512,4.752H393.309z"/>
	<path fill="#EB5342" d="M404.443,162.91c0-3.457-0.097-5.713-0.192-7.729h6.288l0.24,4.32h0.192c1.2-3.408,4.08-4.849,6.336-4.849
		c0.673,0,1.009,0,1.536,0.096v6.865c-0.527-0.097-1.151-0.192-1.968-0.192c-2.688,0-4.513,1.44-4.992,3.696
		c-0.097,0.479-0.145,1.056-0.145,1.632v11.905h-7.296V162.91z"/>
	<path fill="#272A31" d="M283.244,228.718c1.969,1.009,4.992,2.017,8.113,2.017c3.359,0,5.136-1.392,5.136-3.504
		c0-2.017-1.536-3.169-5.424-4.561c-5.377-1.872-8.881-4.849-8.881-9.553c0-5.521,4.608-9.745,12.241-9.745
		c3.647,0,6.336,0.768,8.256,1.632l-1.632,5.905c-1.296-0.625-3.601-1.537-6.769-1.537s-4.704,1.44-4.704,3.121
		c0,2.063,1.824,2.976,6,4.561c5.713,2.111,8.401,5.088,8.401,9.648c0,5.425-4.177,10.033-13.058,10.033
		c-3.696,0-7.345-0.961-9.169-1.969L283.244,228.718z"/>
	<path fill="#272A31" d="M330.814,228.718c0,3.072,0.096,5.569,0.191,7.537h-6.336l-0.337-3.313h-0.144
		c-0.912,1.44-3.12,3.841-7.345,3.841c-4.752,0-8.257-2.977-8.257-10.226v-13.776h7.345v12.625c0,3.408,1.104,5.472,3.648,5.472
		c2.017,0,3.168-1.392,3.648-2.544c0.192-0.432,0.24-1.008,0.24-1.584v-13.969h7.345V228.718z"/>
	<path fill="#272A31" d="M336.668,220.27c0-2.929-0.097-5.425-0.192-7.488h6.145l0.336,3.168h0.144
		c1.009-1.488,3.072-3.696,7.105-3.696c3.023,0,5.424,1.536,6.433,3.984h0.096c0.864-1.2,1.92-2.16,3.024-2.832
		c1.296-0.769,2.736-1.152,4.464-1.152c4.513,0,7.921,3.168,7.921,10.177v13.825h-7.104v-12.77c0-3.408-1.104-5.376-3.456-5.376
		c-1.681,0-2.881,1.152-3.36,2.544c-0.192,0.528-0.288,1.296-0.288,1.872v13.729h-7.104v-13.153c0-2.976-1.057-4.992-3.36-4.992
		c-1.872,0-2.977,1.44-3.408,2.641c-0.24,0.575-0.288,1.248-0.288,1.823v13.682h-7.104V220.27z"/>
	<path fill="#272A31" d="M377.947,220.27c0-2.929-0.097-5.425-0.192-7.488h6.145l0.336,3.168h0.144
		c1.009-1.488,3.072-3.696,7.105-3.696c3.023,0,5.424,1.536,6.433,3.984h0.096c0.864-1.2,1.92-2.16,3.024-2.832
		c1.296-0.769,2.736-1.152,4.464-1.152c4.513,0,7.921,3.168,7.921,10.177v13.825h-7.104v-12.77c0-3.408-1.104-5.376-3.456-5.376
		c-1.681,0-2.881,1.152-3.36,2.544c-0.192,0.528-0.288,1.296-0.288,1.872v13.729h-7.104v-13.153c0-2.976-1.057-4.992-3.36-4.992
		c-1.872,0-2.977,1.44-3.408,2.641c-0.24,0.575-0.288,1.248-0.288,1.823v13.682h-7.104V220.27z"/>
	<path fill="#272A31" d="M426.763,206.252c0,2.017-1.536,3.648-3.937,3.648c-2.304,0-3.84-1.632-3.792-3.648
		c-0.048-2.112,1.488-3.696,3.84-3.696C425.227,202.556,426.715,204.14,426.763,206.252z M419.227,236.255v-23.474h7.296v23.474
		H419.227z"/>
	<path fill="#272A31" d="M440.538,206.061v6.721h5.232v5.376h-5.232v8.497c0,2.832,0.672,4.128,2.88,4.128
		c0.912,0,1.633-0.096,2.16-0.191l0.049,5.521c-0.96,0.384-2.688,0.624-4.753,0.624c-2.352,0-4.32-0.816-5.473-2.017
		c-1.344-1.393-2.016-3.648-2.016-6.961v-9.601h-3.12v-5.376h3.12v-5.089L440.538,206.061z"/>
</g>
</svg>
