<?xml version="1.0" encoding="utf-8"?>
<!-- Generator: Adobe Illustrator 16.0.0, SVG Export Plug-In . SVG Version: 6.00 Build 0)  -->
<!DOCTYPE svg PUBLIC "-//W3C//DTD SVG 1.1//EN" "http://www.w3.org/Graphics/SVG/1.1/DTD/svg11.dtd">
<svg version="1.1" id="Layer_1" xmlns="http://www.w3.org/2000/svg" xmlns:xlink="http://www.w3.org/1999/xlink" x="0px" y="0px"
	 width="573.504px" height="195.726px" viewBox="0 0 573.504 195.726" enable-background="new 0 0 573.504 195.726"
	 xml:space="preserve">
<path fill-rule="evenodd" clip-rule="evenodd" fill="#D3D3D3" d="M169.909,134.658c-1.71-4.609-3.75-9.109-5.79-13.6
	c-2.93-6.45-5.98-12.85-8.99-19.26c-1.88-3.99-3.78-7.98-5.68-11.96c-1.87-3.91-3.71-7.841-5.64-11.73
	c-1.62-3.27-3.36-6.489-5.01-9.75c-1.49-2.94-2.88-5.92-4.37-8.85c-2.9-5.67-5.83-11.32-8.78-16.96c-2.62-5-5.18-10.04-7.96-14.95
	c-1.87-3.3-4.47-6.08-7.4-8.5c-2.05-1.71-4.37-2.96-6.85-4.01c-3.19-1.351-6.46-2.021-9.87-2.05c-4.27-0.041-8.35,0.84-12.25,2.699
	c-3.78,1.801-7,4.291-9.67,7.42c-3.76,4.371-6.26,9.551-8.85,14.66c-1.99,3.93-4,7.86-5.99,11.79c-2.01,3.97-4.03,7.931-6.02,11.9
	c-1.48,2.979-2.9,5.989-4.39,8.96c-2.38,4.75-4.86,9.449-7.19,14.22c-2.49,5.07-4.86,10.2-7.28,15.3
	c-3.09,6.53-6.25,13.03-9.28,19.591c-1.86,4.029-3.51,8.149-5.3,12.21c-2.11,4.8-3.13,9.819-3.14,15.05
	c-0.1,0.02-0.21,0.04-0.32,0.06c0.5,2.97,0.82,5.99,1.53,8.91c2.12,8.68,7.09,15.5,14.38,20.54c6.12,4.23,13.03,6.38,20.47,6.34
	c5.61-0.03,11.07-1.28,16.21-3.54c4.78-2.109,9.34-4.67,13.29-8.109c4.25-3.71,8.33-7.61,12.44-11.46
	c0.59-0.551,0.92-0.681,1.55-0.07c3.59,3.45,7.12,6.97,10.85,10.24c5.31,4.659,11.24,8.34,17.98,10.58
	c5.65,1.869,11.4,2.829,17.4,2.05c9.03-1.181,16.54-5.16,22.6-11.87c2.99-3.3,5.2-7.11,6.73-11.3c1.13-3.08,1.74-6.271,2.25-9.5
	C172.379,144.508,171.699,139.488,169.909,134.658z M94.188,141.798c-0.84,1.149-1.26,1.18-2.18-0.03c-1.53-2.02-3-4.09-4.47-6.16
	c-3.46-4.89-6.55-10-8.92-15.49c-2.36-5.449-4.01-11.079-3.87-17.119c0.24-9.751,7.77-16.99,16.92-17.41
	c4.46-0.2,8.67,0.55,12.35,3.18c3.32,2.36,5.64,5.53,6.66,9.49c0.47,1.81,0.61,3.689,0.76,4.64c-0.01,6.12-1.23,11.07-3.37,15.74
	c-1.81,3.97-3.83,7.87-6.06,11.63c-1.96,3.3-4.33,6.36-6.52,9.54C95.039,140.458,94.648,141.148,94.188,141.798z M158.438,159.478
	c-2.95,5.46-7.39,9.26-13.07,11.49c-5.62,2.2-11.44,2.33-17.27,0.7c-5.21-1.46-9.93-3.931-14.13-7.271
	c-3.41-2.71-6.62-5.68-9.86-8.6c-1.21-1.09-2.25-2.36-3.39-3.53c-0.63-0.64-0.68-1.189-0.1-1.97c2.96-4,5.98-7.95,8.73-12.09
	c2.21-3.33,4.33-6.78,6.03-10.4c1.8-3.84,3.15-7.9,4.51-11.93c1.37-4.021,1.88-8.23,1.82-12.471c-0.06-4.97-1.25-9.64-3.8-13.99
	c-3.65-6.199-8.92-10.229-15.72-12.34c-2.95-0.91-5.95-1.439-9.05-1.33c-4.68-0.189-9.1,0.951-13.27,2.971
	c-3.95,1.92-7.33,4.59-9.98,8.17c-2.96,4-4.63,8.45-5.28,13.36c-0.68,5.09-0.04,10.04,1.42,14.89c0.97,3.24,1.91,6.51,3.26,9.6
	c2.39,5.471,5.37,10.641,8.78,15.551c2.42,3.489,5,6.88,7.51,10.319c0.42,0.58,0.55,1.07-0.06,1.66c-2.97,2.92-5.82,5.98-8.89,8.79
	c-4.06,3.69-8.59,6.75-13.6,9.01c-6.35,2.851-12.9,3.65-19.71,1.811c-7.77-2.11-13.26-6.95-16.56-14.15
	c-2.63-5.74-3.02-11.84-1.12-17.88c1.26-4,2.96-7.87,4.63-11.73c1.77-4.09,3.71-8.1,5.61-12.13c2.35-4.949,4.76-9.88,7.11-14.83
	c1.78-3.76,3.47-7.55,5.26-11.3c1.46-3.05,3-6.06,4.51-9.079c2.04-4.091,4.06-8.19,6.13-12.261c2.84-5.61,5.7-11.2,8.57-16.79
	c2.93-5.71,5.79-11.48,8.88-17.109c2.48-4.541,5.91-8.181,10.98-9.961c3.61-1.27,7.26-1.33,10.94-0.369
	c5.67,1.479,9.41,5.31,12.17,10.22c2.01,3.58,3.92,7.21,5.79,10.86c2.6,5.1,5.12,10.239,7.69,15.359c1.91,3.811,3.86,7.6,5.75,11.42
	c1.94,3.93,3.83,7.881,5.74,11.82c2.8,5.76,5.64,11.5,8.38,17.29c2.33,4.92,4.53,9.899,6.83,14.84c0.98,2.11,2.11,4.16,3.06,6.29
	c2.17,4.82,4.59,9.57,6.34,14.54C162.688,144.579,162.369,152.178,158.438,159.478z"/>
<path fill-rule="evenodd" clip-rule="evenodd" fill="#D3D3D3" d="M557.749,95.758c-2.011-5.81-5.4-10.75-10.271-14.601
	c-6.02-4.76-12.85-7.17-20.56-7.119c-4.71,0.02-9.061,1.1-12.92,3.859c-1.12,0.811-2.19,1.68-3.49,2.69
	c-0.14-0.62-0.351-1.16-0.351-1.7c-0.029-10.16-0.029-20.32-0.039-30.471c0-0.879,0.05-1.77-0.051-2.639
	c-0.029-0.301-0.439-0.791-0.689-0.791c-4.99-0.039-9.98-0.029-15.05-0.029v94.199c4.659,0,9.13,0.021,13.6-0.02
	c1.25-0.01,1.89-0.73,1.97-1.97c0.04-0.63-0.05-1.28,0.021-1.91c0.04-0.32,0.26-0.66,0.5-0.88c0.08-0.07,0.5,0.229,0.75,0.38
	c0.2,0.12,0.41,0.26,0.569,0.43c3.87,3.88,8.73,5.47,14.021,5.79c4.36,0.26,8.61-0.56,12.729-2.1c5.261-1.95,9.69-5.09,13.32-9.33
	c4.92-5.74,7.311-12.47,7.74-20C559.818,104.808,559.278,100.198,557.749,95.758z M543.539,110.789
	c-0.45,2.869-1.471,5.47-3.15,7.76c-2.41,3.29-5.67,5.37-9.62,6.479c-4.6,1.29-9.11,1.28-13.54-0.56
	c-2.689-1.12-4.95-2.851-6.689-5.19c-0.28-0.38-0.37-0.97-0.37-1.46c-0.03-3.479-0.021-6.96-0.021-10.43h-0.029
	c0-3.44,0.02-6.88-0.011-10.32c-0.01-1,0.37-1.71,1.04-2.43c2.2-2.37,4.92-3.92,7.87-5.07c3.46-1.359,6.99-1.24,10.54-0.359
	c4.57,1.13,8.43,3.33,11.1,7.3C543.579,100.858,544.329,105.648,543.539,110.789z"/>
<path fill-rule="evenodd" clip-rule="evenodd" fill="#D3D3D3" d="M419.679,105.378c-0.34-7.061-2.48-13.4-6.78-19.01
	c-3.87-5.041-8.859-8.561-14.859-10.59c-4.03-1.361-8.2-1.961-12.471-1.73c-4.31,0.24-8.29,1.48-11.81,4
	c-1.04,0.75-1.98,1.64-3.21,2.68c-0.141-0.77-0.33-1.32-0.33-1.87c-0.01-7.76,0-15.52,0.02-23.28c0-3.119,0.04-6.239,0.051-9.359
	c0-0.79-0.17-1.301-1.24-1.28c-4.36,0.08-8.72,0.12-13.07,0.011c-1.34-0.041-1.49,0.42-1.49,1.539c0.011,30.271,0,60.551,0,90.83
	c0,0.58,0.051,1.17,0.08,1.83c4.62,0,9.13,0.03,13.641-0.02c1.05-0.011,1.649-0.74,1.75-1.78c0.06-0.67,0.01-1.35,0.06-2.02
	c0.021-0.33,0.17-0.65,0.26-0.971c0.32,0.141,0.721,0.2,0.96,0.44c3.92,3.85,8.71,5.859,14.101,6.189
	c5.16,0.32,10.24-0.62,14.979-2.72c6.4-2.82,11.45-7.29,14.95-13.38C418.738,118.858,420.019,112.329,419.679,105.378z
	 M403.339,112.178c-1.19,5.3-4.22,9.21-9.16,11.56c-5.99,2.841-12.021,3.03-18.08,0.2c-2.06-0.96-3.7-2.479-5.18-4.149
	c-0.44-0.49-0.69-1.301-0.7-1.971c-0.07-3.56-0.03-7.12-0.03-10.68h0.04c0-3.39,0.03-6.79-0.01-10.189
	c-0.01-0.961,0.34-1.621,1.01-2.301c3.271-3.33,7.2-5.449,11.811-5.96c2-0.22,4.119,0.14,6.13,0.54c2.569,0.51,5.05,1.4,7.239,2.939
	c4.12,2.9,6.45,6.801,7.19,11.851C404.009,106.808,403.938,109.499,403.339,112.178z"/>
<path fill-rule="evenodd" clip-rule="evenodd" fill="#D3D3D3" d="M270.589,75.748c-3.8-0.01-7.6-0.01-11.4-0.01
	c-2.19,0-3.13,1.021-3.02,3.26c0.02,0.48-0.04,0.971-0.06,1.461c-0.12,0.039-0.25,0.08-0.37,0.119c-0.52-0.42-1.08-0.789-1.54-1.26
	c-2.3-2.34-5.21-3.58-8.27-4.51c-3.03-0.91-6.15-0.92-9.25-0.72c-3.71,0.239-7.34,1.09-10.74,2.64c-4.28,1.95-8.04,4.58-11.19,8.21
	c-2.8,3.22-4.8,6.81-6.26,10.72c-1.22,3.28-1.7,6.75-1.92,10.271c-0.31,4.91,0.59,9.62,2.21,14.18c1.41,3.95,3.63,7.471,6.52,10.57
	c3.88,4.18,8.55,7.18,13.94,8.82c4.29,1.31,8.78,2.02,13.34,1.3c3.28-0.51,6.45-1.38,9.19-3.34c1.4-1,2.69-2.15,4.25-3.41
	c0.05,0.96,0.12,1.77,0.14,2.569c0.02,1.66,0.84,2.53,2.47,2.54c3.4,0.011,6.8,0,10.2,0h2.88V75.798
	C271.289,75.779,270.938,75.748,270.589,75.748z M256.249,107.668h-0.09c0,3.359-0.12,6.72,0.05,10.069c0.1,1.98-1.26,2.87-2.37,3.9
	c-3.26,3-7.14,4.35-11.63,4.35c-4.61,0.011-8.88-0.93-12.61-3.649c-2.98-2.17-5.05-5.061-6.08-8.641
	c-0.84-2.949-1.28-5.989-0.82-8.989c0.69-4.49,2.44-8.53,6.19-11.45c4.52-3.521,9.68-5.06,15.32-4.31
	c4.26,0.569,8.06,2.469,11,5.729c0.58,0.64,0.97,1.68,0.99,2.55C256.319,100.708,256.249,104.188,256.249,107.668z"/>
<path fill-rule="evenodd" clip-rule="evenodd" fill="#D3D3D3" d="M485.148,137.988v1.521h-15.64v-1.54
	c-0.01-12.16,0.07-24.32-0.061-36.47c-0.05-3.811-0.689-7.641-3.739-10.41c-1.7-1.54-3.74-2.56-6.12-2.61
	c-1.91-0.04-3.86-0.3-5.7,0.04c-4.08,0.761-7.63,2.72-10.45,5.81c-0.39,0.431-0.51,1.24-0.51,1.881
	c-0.03,13.199-0.021,26.399-0.021,39.6v3.24h-15.859v-61.67c0-1.631,0-1.631,1.59-1.641c3.52-0.01,7.04-0.02,10.56-0.01
	c1.881,0,2.75,0.91,2.74,2.83c-0.01,0.62,0,1.25,0,2.25c0.79-0.6,1.36-0.96,1.86-1.41c2.6-2.35,5.71-3.71,9.05-4.59
	c3.97-1.05,8.03-1.1,12.01-0.439c4.71,0.789,8.99,2.68,12.7,5.899c4.26,3.71,6.48,8.36,7.15,13.84c0.26,2.21,0.41,4.45,0.42,6.681
	C485.169,113.188,485.148,125.588,485.148,137.988z"/>
<path fill-rule="evenodd" clip-rule="evenodd" fill="#D3D3D3" d="M347.209,89.228c-1.87-0.29-3.65-0.67-5.45-0.8
	c-6.28-0.47-11.8,1.31-16.25,5.91c-0.29,0.3-0.47,0.84-0.47,1.27c-0.021,14.351-0.011,28.71-0.011,43.07
	c0,0.24-0.029,0.47-0.06,0.81h-15.521v-63.74c4.54,0,8.971-0.02,13.4,0.021c1.09,0.011,1.96,1.011,1.99,2.13
	c0.02,0.82,0,1.65,0,2.78c0.6-0.36,0.99-0.511,1.28-0.771c3.47-3.129,7.489-5.22,12.109-5.709c2.62-0.281,5.32,0.18,7.97,0.399
	c0.36,0.03,0.971,0.601,0.971,0.931C347.229,80.108,347.209,84.688,347.209,89.228z"/>
<path fill-rule="evenodd" clip-rule="evenodd" fill="#D3D3D3" d="M298.398,75.738v63.32c-0.35,0.04-0.66,0.1-0.96,0.1
	c-4.479,0-8.96-0.029-13.44,0.011c-1.06,0.01-1.54-0.19-1.34-1.4c0.15-0.93,0.04-1.9,0.04-2.86V77.798c0-2.42-0.17-2.061,2.01-2.061
	H298.398z"/>
<path fill-rule="evenodd" clip-rule="evenodd" fill="#D3D3D3" d="M301.309,55.608c0.03,5.97-4.72,10.7-10.86,10.66
	c-5.959-0.04-11.06-4.51-10.669-11.68c0.28-5.25,4.52-9.841,10.669-9.8C296.358,44.838,301.269,49.178,301.309,55.608z"/>
</svg>
