<?xml version="1.0" encoding="utf-8"?>
<!-- Generator: Adobe Illustrator 16.0.0, SVG Export Plug-In . SVG Version: 6.00 Build 0)  -->
<!DOCTYPE svg PUBLIC "-//W3C//DTD SVG 1.1//EN" "http://www.w3.org/Graphics/SVG/1.1/DTD/svg11.dtd">
<svg version="1.1" id="Layer_1" xmlns="http://www.w3.org/2000/svg" xmlns:xlink="http://www.w3.org/1999/xlink" x="0px" y="0px"
	 width="574px" height="195px" viewBox="0 0 574 195" enable-background="new 0 0 574 195" xml:space="preserve">
<path fill-rule="evenodd" clip-rule="evenodd" fill="#D3D3D3" d="M84.976,28.118c2.327,0.3,4.657,0.58,6.981,0.902
	c14.292,1.984,26.756,7.798,37.209,17.808c0.126,0.121,0.209,0.289,0.587,0.823c-1.456,1.356-2.987,2.723-4.448,4.16
	c-2.344,2.308-4.695,4.611-6.932,7.02c-1.021,1.1-1.691,1.297-2.947,0.23c-6.111-5.19-12.968-8.947-20.853-10.813
	c-28.421-6.726-56.45,11.604-61.158,40.438c-2.903,17.779,1.875,33.438,14.953,46.115c7.646,7.412,16.923,11.755,27.539,13.074
	c12.891,1.601,24.924-0.637,35.784-8.077c10.146-6.951,15.021-16.91,16.483-28.822c0.021-0.166-0.072-0.346-0.176-0.799
	c-0.724,0-1.494,0-2.262,0c-13.643,0-27.286-0.028-40.928,0.034c-1.729,0.009-2.338-0.443-2.295-2.241
	c0.115-4.748,0.088-9.501,0.011-14.25c-0.025-1.54,0.542-1.989,2.02-1.986c19.916,0.033,39.832,0.032,59.748-0.001
	c1.341-0.002,2.072,0.42,2.215,1.772c1.85,17.544-0.476,34.187-11.286,48.729c-9.256,12.452-21.807,20.075-36.943,23.057
	c-21.543,4.244-41.406,0.068-58.858-13.501c-14.159-11.01-22.957-25.448-25.926-43.255c-0.408-2.447-0.496-4.947-0.775-7.418
	c-0.08-0.706-0.313-1.396-0.475-2.092c0-0.853,0-1.706,0-2.559c0.169-0.881,0.381-1.755,0.499-2.643
	c0.464-3.48,0.625-7.025,1.386-10.438c6.484-29.107,30.698-50.843,60.436-54.411c1.654-0.198,3.288-0.567,4.931-0.856
	C81.321,28.118,83.148,28.118,84.976,28.118z"/>
<path fill-rule="evenodd" clip-rule="evenodd" fill="#D3D3D3" d="M390.533,170.954c-1.658-0.272-3.313-0.574-4.976-0.812
	c-13.252-1.897-22.993-9.048-29.998-20.184c-3.144-4.996-3.052-5.066,2.388-7.354c3.588-1.51,7.188-2.985,10.786-4.47
	c0.16-0.065,0.352-0.055,0.403-0.062c1.648,2.416,3.098,4.886,4.877,7.09c9.171,11.365,26.435,10.426,34.699,2.688
	c4.501-4.215,6.515-9.616,7.158-15.565c0.353-3.254,0.301-6.554,0.4-9.833c0.02-0.634-0.103-1.271-0.2-2.356
	c-0.877,0.699-1.449,1.088-1.943,1.56c-6.912,6.615-15.269,9.458-24.673,8.85c-9.386-0.606-17.69-4.218-24.794-10.405
	c-8.675-7.557-13.822-17.14-15.167-28.508c-2.817-23.821,13.407-45.437,35.828-49.33c10.693-1.857,20.419,0.541,28.577,8.075
	c0.446,0.411,0.92,0.796,1.402,1.163c0.127,0.097,0.337,0.086,0.773,0.183c0.072-0.796,0.191-1.533,0.197-2.271
	c0.037-5.107,0.029-5.107,5.205-5.107c3.35,0.001,6.699-0.035,10.048,0.015c2.572,0.039,2.699,0.212,2.699,2.689
	c-0.001,26.978,0.166,53.957-0.093,80.932c-0.1,10.384-2.785,20.235-9.429,28.595c-6.224,7.832-14.588,11.896-24.289,13.519
	c-1.83,0.306-3.663,0.602-5.495,0.901C393.457,170.954,391.995,170.954,390.533,170.954z M368.337,86.223
	c-0.072,6.838,2.012,13.091,6.471,18.542c9.35,11.433,26.699,11.668,36.274,0.471c7.522-8.797,8.671-23.795,2.624-34.271
	c-8.194-14.198-26.172-16.516-37.637-4.77C370.714,71.682,368.368,78.446,368.337,86.223z"/>
<path fill-rule="evenodd" clip-rule="evenodd" fill="#D3D3D3" d="M243.459,97.476c0.067,25.536-19.96,44.365-44.227,44.477
	c-25.044,0.114-44.772-19.332-44.775-44.492c-0.003-25.407,20.049-44.513,44.625-44.412
	C223.974,53.149,243.557,72.175,243.459,97.476z M173.463,99.08c0.434,1.953,0.837,5.684,2.094,9.099
	c6.545,17.782,28.601,22.371,41.504,8.536c7.346-7.878,8.875-17.46,6.164-27.703c-4.263-16.105-22.25-23.838-36.502-15.591
	C177.645,78.674,173.89,87.11,173.463,99.08z"/>
<path fill-rule="evenodd" clip-rule="evenodd" fill="#D3D3D3" d="M340.459,97.476c0.067,25.536-19.96,44.365-44.227,44.477
	c-25.044,0.114-44.772-19.332-44.775-44.492c-0.003-25.407,20.049-44.513,44.625-44.412
	C320.975,53.149,340.557,72.175,340.459,97.476z M270.463,99.08c0.434,1.953,0.837,5.684,2.094,9.099
	c6.545,17.782,28.601,22.371,41.504,8.536c7.347-7.878,8.875-17.46,6.163-27.703c-4.263-16.105-22.25-23.838-36.502-15.591
	C274.645,78.674,270.89,87.11,270.463,99.08z"/>
<path fill-rule="evenodd" clip-rule="evenodd" fill="#D3D3D3" d="M544.62,112.683c4.88,3.257,9.67,6.452,14.589,9.733
	c-2.046,3.405-4.627,6.14-7.48,8.588c-7.211,6.188-15.495,9.74-25.044,10.713c-21.765,2.218-43.945-11.506-47.767-36.871
	c-2.433-16.148,1.762-30.581,14.24-41.854c5.932-5.358,13.047-8.438,20.949-9.506c19.888-2.688,33.621,7.389,41.542,22.294
	c1.452,2.732,2.568,5.642,3.872,8.453c0.642,1.383,0.347,2.084-1.169,2.701c-12.047,4.911-24.055,9.918-36.072,14.898
	c-6.684,2.77-13.349,5.585-20.059,8.286c-1.522,0.613-1.73,1.157-0.925,2.632c8.479,15.514,29.782,15.227,39.516,4.279
	C542.058,115.629,543.283,114.21,544.62,112.683z M537.889,79.625c-0.669-1.14-1.085-2.082-1.704-2.862
	c-4.823-6.082-11.427-7.89-18.623-6.546c-10.161,1.898-16.714,8.219-19.456,18.259c-0.673,2.468-1.182,5.013-0.69,8.004
	C510.992,90.825,524.303,85.282,537.889,79.625z"/>
<path fill-rule="evenodd" clip-rule="evenodd" fill="#D3D3D3" d="M448.842,163.118c0-43.982,0-87.445,0-131.066
	c0.565-0.06,1.093-0.162,1.62-0.163c5.298-0.013,10.598,0.034,15.895-0.035c1.438-0.019,1.883,0.44,1.882,1.88
	c-0.031,42.508-0.031,85.015,0,127.522c0.001,1.428-0.422,1.907-1.872,1.891C460.593,163.078,454.817,163.118,448.842,163.118z"/>
</svg>
