<?xml version="1.0" encoding="utf-8"?>
<!-- Generator: Adobe Illustrator 16.0.0, SVG Export Plug-In . SVG Version: 6.00 Build 0)  -->
<!DOCTYPE svg PUBLIC "-//W3C//DTD SVG 1.1//EN" "http://www.w3.org/Graphics/SVG/1.1/DTD/svg11.dtd">
<svg version="1.1" id="Layer_1" xmlns="http://www.w3.org/2000/svg" xmlns:xlink="http://www.w3.org/1999/xlink" x="0px" y="0px"
	 width="2500px" height="654px" viewBox="0 0 2500 654" enable-background="new 0 0 2500 654" xml:space="preserve">
<path fill="#D3D3D3" d="M103.465,186.068c7.57,11.689,10.908,22.109,15.135,44.101c29.601-28.893,66.103-44.101,105.943-44.101
	c35.98,0,65.512,11.689,88.359,35.536c6.159,5.979,12.094,13.69,17.214,21.26c39.762-40.729,75.376-56.795,123.078-56.795
	c33.979,0,66.182,10.162,85.84,27.078c24.555,21.221,32.344,46.736,32.344,106.133v309.04H460.988v-286.9
	c0-52.008-6.159-62.063-35.761-62.063c-21.221,0-51.041,14.471-75.527,36.541v312.412H241.976V345.498
	c0-54.224-7.858-66.962-39.464-66.962c-20.997,0-50.08,10.884-74.561,33.061v316.717H16.814V325.17
	c0-62.765-4.305-89.876-16.247-111.205L103.465,186.068z M773.254,313.305c-7.795,22.998-11.943,53.525-11.943,96.855
	c0,49.963,5.115,87.51,14.388,109.502c10.235,23.777,35.839,35.647,57.714,35.647c49.27,0,70.339-44.102,70.339-146.818
	c0-58.616-7.644-96.895-22.852-116.475c-10.913-14.32-28.639-22.851-49.113-22.851c-27.229,0-49.338,16.911-58.532,44.135V313.305z
	 M977.785,250.541c34.725,40.729,50.23,88.247,50.23,158.693c0,74.707-17.136,125.743-54.604,168.112
	c-32.939,37.316-76.343,60.319-143.261,60.319c-118.184,0-195.263-88.329-195.263-224.947c0-136.739,77.895-227.616,195.263-227.616
	c61.949,0,110.321,21.299,147.638,65.439H977.785z M1393.914,193.638v78.114l-191.998,277.584h199.495l-27.234,78.978h-319.889
	v-70.441l204.39-284.402h-187.332v-79.832h322.573H1393.914z M1572.944,183.398v444.915h-113.737V201.276L1572.944,183.398z
	 M1586.293,73.965c0,39.108-31.09,70.334-70.403,70.334c-38.063,0-69.367-31.226-69.367-70.33c0-39.025,32.349-70.524,71.285-70.524
	c38.143,0,68.485,31.5,68.485,70.524V73.965z M1780.077,113.074v338.669c0,74.819,0.893,84.874,7.716,96.743
	c4.305,7.711,13.5,11.875,23.002,11.875c4.076,0,6.525,0,12.68-1.563l19.439,67.841c-19.439,7.604-43.252,11.845-67.874,11.845
	c-48.528,0-87.548-22.86-101.058-59.289c-8.531-22.104-10.386-35.756-10.386-97.7V157.058c0-56.83-1.479-91.55-5.716-130.756
	L1774.22,0C1778.295,23.744,1780.077,51.783,1780.077,113.074z M2015.995,113.074v338.669c0,74.819,0.972,84.874,7.945,96.743
	c4.003,7.711,13.197,11.875,22.7,11.875c4.305,0,6.9,0,12.904-1.563l19.371,67.841c-19.371,7.604-43.188,11.845-67.89,11.845
	c-48.439,0-87.538-22.86-101.116-59.289c-8.678-22.104-10.093-35.756-10.093-97.7V157.058c0-56.83-1.698-91.55-6.081-130.756
	L2009.909,0c4.681,23.744,6.081,51.783,6.081,113.074H2015.995z M2341.912,438.17c-78.642,0-106.236,14.315-106.236,66.322
	c0,33.823,21.514,56.752,50.368,56.752c21.147,0,42.52-11.055,59.362-29.674l1.854-93.405h-5.349V438.17z M2194.493,209.807
	c42.296-17.882,78.656-25.447,118.711-25.447c73.155,0,123.157,27.087,140.288,75.522c5.642,17.814,8.238,31.387,7.721,78.119
	l-2.752,145.939v7.711c0,46.669,7.721,64.546,40.973,89.11l-60.402,69.734c-26.565-11.128-50.222-30.714-61.286-52.711
	c-8.38,8.565-17.805,16.877-26.413,22.885c-21.065,15.291-51.852,23.817-87.466,23.817c-96.812,0-149.409-49.343-149.409-135.769
	c0-102.043,70.622-149.639,208.908-149.639c8.313,0,16.175,0,25.6,0.961v-17.726c0-48.484-9.425-64.619-51.267-64.619
	c-36.058,0-78.865,17.726-125.46,49.216l-48.445-81.525C2146.869,230.911,2163.863,222.497,2194.493,209.807z"/>
</svg>
