<?xml version="1.0" encoding="utf-8"?>
<!-- Generator: Adobe Illustrator 16.0.0, SVG Export Plug-In . SVG Version: 6.00 Build 0)  -->
<!DOCTYPE svg PUBLIC "-//W3C//DTD SVG 1.1//EN" "http://www.w3.org/Graphics/SVG/1.1/DTD/svg11.dtd">
<svg version="1.1" id="Layer_1" xmlns="http://www.w3.org/2000/svg" xmlns:xlink="http://www.w3.org/1999/xlink" x="0px" y="0px"
	 width="457.265px" height="94.872px" viewBox="0 0 457.265 94.872" enable-background="new 0 0 457.265 94.872"
	 xml:space="preserve">
<path fill-rule="evenodd" clip-rule="evenodd" fill="#D3D3D3" d="M14.256,86.755c0.03-0.715,0.088-1.43,0.088-2.145
	c0.005-24.246,0.004-48.491,0.004-72.736c0-2.203,0.001-2.203,2.275-2.203c8.512,0,17.024,0.041,25.536-0.037
	c1.559-0.014,2.471,0.431,3.349,1.767c8.769,13.337,17.612,26.625,26.463,39.907c0.409,0.615,1.092,1.047,1.647,1.563
	c0.016-0.758,0.206-1.561,0.02-2.266c-1.72-6.507-2.367-13.111-2.231-19.836c0.131-6.502,0.059-13.008,0.002-19.511
	c-0.011-1.271,0.38-1.62,1.635-1.612c8.799,0.049,17.598,0.059,26.397-0.007c1.431-0.011,1.742,0.463,1.74,1.801
	c-0.035,24.39-0.026,48.778-0.023,73.167c0,0.717,0.04,1.432,0.062,2.148c-10.045,0-20.09,0-30.136,0
	c-0.13-0.34-0.198-0.723-0.398-1.014c-8.941-13.053-17.892-26.097-26.857-39.132c-0.287-0.417-0.746-0.715-1.125-1.067
	c-0.124,0.065-0.247,0.132-0.37,0.198c0.031,0.533,0.018,1.074,0.101,1.601c0.51,3.239,1.42,6.468,1.495,9.716
	c0.23,9.896,0.141,19.798,0.176,29.699C34.155,86.755,24.206,86.755,14.256,86.755z"/>
<path fill-rule="evenodd" clip-rule="evenodd" fill="#D3D3D3" d="M402.292,9.264c1.272,0.133,2.544,0.286,3.819,0.398
	c8.147,0.719,15.972,2.417,22.495,7.777c5.085,4.178,7.668,9.69,7.979,16.201c0.131,2.748,0.053,5.563-0.398,8.27
	c-0.831,4.986-3.765,8.622-8.246,10.896c-2.161,1.098-4.475,1.891-6.721,2.818c-0.506,0.209-1.019,0.402-1.633,0.643
	c0.247,0.354,0.336,0.605,0.512,0.713c4.12,2.535,6.644,6.539,9.468,10.263c4.534,5.98,9.06,11.969,13.585,17.955
	c0.226,0.297,0.423,0.617,0.733,1.074c-0.557,0.029-0.963,0.07-1.37,0.07c-11,0.004-22.001-0.014-33.002,0.027
	c-1.104,0.006-1.717-0.328-2.248-1.307c-4.087-7.512-8.226-14.994-12.361-22.48c-0.283-0.512-0.674-0.965-1.015-1.446
	c-0.137,0.028-0.273,0.058-0.411,0.087c-0.068,0.563-0.196,1.127-0.197,1.691c-0.014,7.173-0.009,14.349-0.01,21.523
	c0,1.904-0.001,1.906-1.849,1.906c-8.943,0.002-17.888,0.002-26.832,0c-1.887,0-1.894-0.002-1.894-1.895
	c-0.002-24.297-0.001-48.595-0.002-72.892c0-0.766-0.007-1.53-0.01-2.295C375.887,9.264,389.09,9.264,402.292,9.264z
	 M393.273,36.877c0,1.864,0.034,3.729-0.016,5.59c-0.022,0.852,0.276,1.303,1.129,1.225c2.46-0.223,4.977-0.226,7.357-0.79
	c3.319-0.788,4.516-2.886,4.397-6.7c-0.086-2.783-1.753-4.902-4.755-5.461c-2.324-0.433-4.73-0.429-7.1-0.616
	c-0.855-0.067-1.031,0.428-1.021,1.163C393.291,33.15,393.273,35.014,393.273,36.877z"/>
<path fill-rule="evenodd" clip-rule="evenodd" fill="#D3D3D3" d="M107.534,86.755c2.034-5.094,4.095-10.176,6.098-15.281
	c7.896-20.123,15.781-40.25,23.642-60.388c0.404-1.035,0.904-1.449,2.076-1.443c10.57,0.051,21.142,0.051,31.712,0
	c1.178-0.006,1.659,0.432,2.07,1.455c9.934,24.76,19.898,49.506,29.862,74.253c0.194,0.482,0.457,0.938,0.688,1.404
	c-11.098,0-22.195,0-33.293,0c-0.858-2.973-1.677-5.957-2.619-8.902c-0.134-0.418-0.866-0.914-1.325-0.918
	c-7.362-0.057-14.726-0.055-22.089-0.002c-0.428,0.002-1.129,0.461-1.235,0.84c-0.829,2.977-1.544,5.984-2.294,8.982
	C129.729,86.755,118.632,86.755,107.534,86.755z M161.931,58.91c-0.107-0.596-0.159-1.057-0.276-1.5
	c-1.205-4.554-2.461-9.094-3.616-13.658c-0.652-2.578-1.107-5.205-1.733-7.791c-0.112-0.459-0.628-0.82-0.958-1.228
	c-0.285,0.381-0.702,0.723-0.828,1.15c-0.24,0.815-0.26,1.692-0.465,2.52c-1.514,6.094-3.053,12.181-4.576,18.271
	c-0.177,0.705-0.307,1.423-0.479,2.235C153.423,58.91,157.595,58.91,161.931,58.91z"/>
<path fill-rule="evenodd" clip-rule="evenodd" fill="#D3D3D3" d="M290.072,86.755c0.041-0.615,0.118-1.232,0.119-1.848
	c0.006-24.437,0.005-48.875,0.005-73.311c0-1.923,0.001-1.925,1.975-1.925c18.172,0,36.345,0.018,54.517-0.032
	c1.449-0.004,1.869,0.363,1.848,1.833c-0.086,5.737-0.082,11.477-0.002,17.215c0.02,1.428-0.451,1.746-1.795,1.736
	c-7.747-0.058-15.494-0.004-23.241-0.051c-1.272-0.008-1.824,0.299-1.715,1.673c0.117,1.474,0.125,2.972-0.002,4.442
	c-0.126,1.459,0.507,1.774,1.807,1.748c3.106-0.064,6.216-0.021,9.324-0.021c3.922,0.001,7.844,0.032,11.764-0.018
	c1.185-0.015,1.563,0.39,1.552,1.584c-0.055,5.547-0.057,11.095,0.001,16.642c0.013,1.211-0.377,1.54-1.555,1.532
	c-7.03-0.048-14.06-0.023-21.09-0.023c-0.516,0-1.031,0-1.754,0c0,2.515-0.04,4.887,0.058,7.252
	c0.011,0.256,0.817,0.678,1.262,0.686c3.251,0.059,6.503,0.033,9.755,0.033c4.926,0,9.852,0.039,14.776-0.025
	c1.283-0.018,1.737,0.295,1.72,1.668c-0.077,5.832-0.036,11.668-0.028,17.502c0.001,0.568,0.073,1.139,0.112,1.707
	C329.679,86.755,309.875,86.755,290.072,86.755z"/>
<path fill-rule="evenodd" clip-rule="evenodd" fill="#D3D3D3" d="M222.912,86.755c-0.508-1.367-0.952-2.764-1.535-4.098
	c-10.359-23.761-20.735-47.514-31.106-71.269c-0.208-0.476-0.397-0.958-0.656-1.584c0.459-0.053,0.808-0.127,1.157-0.127
	c9.996-0.007,19.991,0.014,29.987-0.032c1.079-0.005,1.481,0.393,1.794,1.351c3.595,11.019,7.354,21.984,10.789,33.053
	c1.19,3.836,1.582,7.918,2.397,11.876c0.104,0.501,0.569,0.927,0.867,1.388c0.26-0.438,0.707-0.855,0.752-1.314
	c0.767-7.756,3.326-15.047,5.69-22.395c2.425-7.534,4.795-15.086,7.161-22.639c0.254-0.808,0.519-1.316,1.528-1.313
	c10.14,0.033,20.278,0.02,30.418,0.024c0.231,0,0.463,0.05,0.97,0.106c-0.509,1.188-0.961,2.259-1.427,3.324
	c-10.508,24.061-21.019,48.121-31.525,72.181c-0.21,0.48-0.381,0.979-0.57,1.467C240.707,86.755,231.809,86.755,222.912,86.755z"/>
</svg>
